Coordinates
version=1
nRows=17
nColumns=40
inDegrees=yes

Units are S.I. units (second, meters, Newtons, ...)
Angles are in degrees.

endheader
time	pelvis_tilt	pelvis_list	pelvis_rotation	pelvis_tx	pelvis_ty	pelvis_tz	hip_flexion_r	hip_adduction_r	hip_rotation_r	knee_angle_r	knee_angle_r_beta	ankle_angle_r	subtalar_angle_r	mtp_angle_r	hip_flexion_l	hip_adduction_l	hip_rotation_l	knee_angle_l	knee_angle_l_beta	ankle_angle_l	subtalar_angle_l	mtp_angle_l	lumbar_extension	lumbar_bending	lumbar_rotation	arm_flex_r	arm_add_r	arm_rot_r	elbow_flex_r	pro_sup_r	wrist_flex_r	wrist_dev_r	arm_flex_l	arm_add_l	arm_rot_l	elbow_flex_l	pro_sup_l	wrist_flex_l	wrist_dev_l
     51.06500000	     -4.98271777	     -4.14444411	      4.31687152	      0.83152506	      0.91937868	      0.46414119	     -1.96089360	     -0.52582800	    -17.52937253	     20.32853330	     20.32853330	     17.24555252	      1.65798129	     -6.23606762	     28.28672048	     -3.73120519	      1.45741748	     26.64110803	     26.64110803	      5.91470023	    -14.60059832	      6.56957694	     -7.11277638	      5.28214816	      4.43460315	     35.85579581	    -17.03107043	     -7.02713505	     95.62946377	     44.61967311	      0.00000000	      0.00000000	    -10.38375561	     -6.93322933	      2.11616084	     29.73320402	     44.48748230	      0.00000000	      0.00000000
     51.07857143	     -5.05673107	     -4.06876194	      4.09004147	      0.83206686	      0.92041236	      0.46113797	     -1.32152979	     -1.25720970	    -17.37395555	     22.27738308	     22.27738308	     16.53103114	      1.42783872	     -7.42048400	     27.76473264	     -3.54066513	      1.28245892	     26.63086877	     26.63086877	      6.57031338	    -14.66170420	      6.99249237	     -7.11578247	      5.28201206	      4.47153206	     34.66188704	    -16.83005289	     -7.42008412	     93.45336711	     44.70509002	      0.00000000	      0.00000000	     -9.38107384	     -7.05727236	      1.89395987	     30.33377241	     44.55233725	      0.00000000	      0.00000000
     51.09214286	     -5.06107458	     -4.02247988	      3.88811879	      0.83255941	      0.92149867	      0.45823512	     -0.75863873	     -1.89534858	    -17.03283193	     24.04202569	     24.04202569	     14.60721133	      0.41081514	    -11.53823033	     27.21846527	     -3.40929040	      1.06269417	     26.72105705	     26.72105705	      7.61817787	    -14.44757127	      8.34011314	     -7.10323229	      5.31042254	      3.83528116	     34.13995215	    -15.61600848	     -8.00103140	     89.54019532	     44.87655353	      0.00000000	      0.00000000	     -8.82492881	     -7.16836220	      0.97621521	     31.39468828	     44.76160278	      0.00000000	      0.00000000
     51.10571429	     -5.11156159	     -3.93311733	      3.63952275	      0.83287574	      0.92238107	      0.45537185	      0.26847347	     -2.70860907	    -16.58466221	     26.67945737	     26.67945737	     13.75066377	     -0.24731862	    -12.46125928	     26.60816342	     -3.27837139	      0.65810204	     26.57143621	     26.57143621	      8.11215529	    -14.21776125	      8.16309888	     -7.16301308	      5.29735711	      4.01102835	     32.57046257	    -15.80472504	     -7.96615839	     87.86790670	     44.92733781	      0.00000000	      0.00000000	     -7.63189134	     -7.37884281	      0.72849650	     32.10722784	     44.82445484	      0.00000000	      0.00000000
     51.11928571	     -5.19788621	     -3.87166255	      3.39041301	      0.83296442	      0.92308951	      0.45259534	      1.54122771	     -3.48196881	    -15.93792727	     29.58238578	     29.58238578	     12.56893167	     -1.31168324	    -13.62602384	     26.03715324	     -3.17503357	      0.26246390	     26.38868602	     26.38868602	      8.60835997	    -13.95050211	      7.93288296	     -7.17031934	      5.31017240	      4.16508870	     31.08271761	    -15.81923378	     -8.19116488	     85.59481523	     45.00583079	      0.00000000	      0.00000000	     -6.41759165	     -7.62193553	      0.45613436	     32.91572807	     44.89020658	      0.00000000	      0.00000000
     51.13285714	     -5.25846871	     -3.77774605	      3.16298779	      0.83283293	      0.92369161	      0.44988610	      2.99952686	     -4.25427943	    -15.10393167	     32.75272179	     32.75272179	     11.11940853	     -2.72025085	    -14.75661307	     25.46467817	     -3.05338979	     -0.21582822	     26.22193730	     26.22193730	      9.06140095	    -13.63171066	      7.65400193	     -7.24776655	      5.29579062	      4.21587725	     29.62855990	    -15.68756476	     -8.46965244	     83.13498131	     45.09140208	      0.00000000	      0.00000000	     -5.16216271	     -7.91638113	      0.18933198	     33.76407417	     44.95363084	      0.00000000	      0.00000000
     51.14642857	     -5.29176451	     -3.86292602	      2.96734449	      0.83256396	      0.92421554	      0.44745544	      4.43404145	     -4.60286511	    -13.91300989	     35.59044447	     35.59044447	      8.13472793	     -5.76130693	    -18.96041845	     24.91856974	     -3.14589832	     -0.63022030	     26.09245031	     26.09245031	      9.44838017	    -13.13630474	      6.96108159	     -7.20335634	      5.45175910	      3.30146254	     29.54827026	    -14.22937084	     -9.20874231	     77.49755046	     45.30649249	      0.00000000	      0.00000000	     -4.64874476	     -8.26563392	     -0.89198319	     35.41175442	     45.15769944	      0.00000000	      0.00000000
     51.16000000	     -5.27879518	     -3.67543629	      2.75523264	      0.83202551	      0.92459387	      0.44492483	      6.20391979	     -5.43765495	    -12.99148120	     39.26961745	     39.26961745	      6.57124287	     -7.13255247	    -19.08122336	     24.30007393	     -2.92397691	     -1.08285138	     25.93698162	     25.93698162	      9.87264219	    -12.83722574	      6.69013386	     -7.44171146	      5.34237059	      3.37066560	     27.80888982	    -14.32895136	     -9.11518670	     75.81102973	     45.35202781	      0.00000000	      0.00000000	     -3.13868425	     -8.66679866	     -1.13956734	     36.20371465	     45.21704608	      0.00000000	      0.00000000
     51.17357143	     -5.33619285	     -3.82331422	      2.53299410	      0.83127021	      0.92484457	      0.44290080	      8.15882436	     -5.53602397	    -11.51709727	     42.80365514	     42.80365514	      4.73333296	     -9.64374906	    -18.52107781	     23.84218122	     -3.11816430	     -1.55241229	     25.85471650	     25.85471650	     10.34383185	    -12.31130587	      6.04043405	     -7.49294363	      5.55630669	      3.39676333	     26.66109407	    -14.19769680	     -9.66885737	     71.69960865	     45.50132311	      0.00000000	      0.00000000	     -1.74380145	     -9.00673260	     -1.55623787	     37.21988849	     45.31325370	      0.00000000	      0.00000000
     51.18714286	     -5.34482986	     -3.59963492	      2.32291954	      0.83043371	      0.92494634	      0.44070112	     10.17847418	     -6.24087821	    -10.52310044	     46.52876845	     46.52876845	      3.02626516	    -11.01207154	    -18.03544397	     23.26934293	     -2.85878986	     -1.98428591	     25.69688372	     25.69688372	     10.78547535	    -12.04757582	      5.73140809	     -7.66143945	      5.40215222	      3.33718146	     24.93806055	    -14.08504918	     -9.64340853	     69.74037469	     45.55737593	      0.00000000	      0.00000000	     -0.25680850	     -9.52519102	     -1.77526894	     37.95648348	     45.36716576	      0.00000000	      0.00000000
     51.20071429	     -5.34827960	     -3.67547431	      2.11028525	      0.82937059	      0.92508614	      0.43904413	     12.31425279	     -6.26053845	     -9.16911369	     50.19453879	     50.19453879	      2.12376525	    -12.47832825	    -14.60784203	     22.77343998	     -3.00127516	     -2.46154697	     25.61789027	     25.61789027	     11.19177736	    -11.42485778	      4.84592182	     -7.71890159	      5.48921546	      2.97480999	     24.48523446	    -13.39324482	    -10.37321925	     63.85105566	     45.76826022	      0.00000000	      0.00000000	      1.20783927	    -10.04455737	     -2.04569528	     38.75099234	     45.45520548	      0.00000000	      0.00000000
     51.21428571	     -5.36855841	     -3.48613822	      1.89762324	      0.82817887	      0.92512149	      0.43728493	     14.42152120	     -6.65401311	     -8.13941386	     53.55078858	     53.55078858	      0.67932730	    -13.80448841	    -13.48098030	     22.26681489	     -2.78199701	     -2.81460500	     25.48170922	     25.48170922	     11.56560416	    -11.27665632	      4.59024323	     -7.90055657	      5.34071746	      3.07976031	     22.58992896	    -13.53807351	    -10.29218090	     61.76899305	     45.82449930	      0.00000000	      0.00000000	      2.83491823	    -10.53228375	     -2.28960005	     39.59020312	     45.51471757	      0.00000000	      0.00000000
     51.22785714	     -5.26653429	     -3.52084087	      1.72749393	      0.82698164	      0.92541634	      0.43588041	     16.46319507	     -6.64931947	     -7.20462779	     56.87278819	     56.87278819	      1.08533013	    -14.00845916	     -7.59084169	     21.67055262	     -2.86544102	     -3.22885446	     25.39379360	     25.39379360	     11.89198394	    -10.81677635	      3.81154858	     -8.07911968	      5.40118316	      2.67559150	     22.21523347	    -12.98920568	    -10.63842455	     55.74537795	     46.01724964	      0.00000000	      0.00000000	      4.49331443	    -11.14115460	     -2.45001641	     39.95330720	     45.59887384	      0.00000000	      0.00000000
     51.24142857	     -5.25239414	     -3.37845825	      1.53216394	      0.82573696	      0.92564354	      0.43449337	     18.42085257	     -6.80140815	     -6.35972180	     59.51505390	     59.51505390	      0.11195491	    -15.07868822	     -6.63336175	     21.08536945	     -2.69650518	     -3.50514028	     25.16360331	     25.16360331	     12.23514768	    -10.65185149	      3.62585075	     -8.23527953	      5.27756656	      2.84277821	     20.14812240	    -13.19692597	    -10.52039231	     53.71196756	     46.06827178	      0.00000000	      0.00000000	      6.27586839	    -11.59470381	     -2.70561961	     40.86850992	     45.66189553	      0.00000000	      0.00000000
     51.25500000	     -5.14127158	     -3.41180363	      1.36614975	      0.82445380	      0.92612755	      0.43334545	     20.27653520	     -6.76215682	     -5.84297712	     61.96766604	     61.96766604	      0.76855167	    -15.16217875	     -2.06825354	     20.42038807	     -2.76036907	     -3.86902347	     24.94294880	     24.94294880	     12.50881895	    -10.28353250	      3.02421864	     -8.48919722	      5.37067602	      2.55106891	     19.54641075	    -12.90423608	    -10.54474908	     48.11110872	     46.22965662	      0.00000000	      0.00000000	      8.04961405	    -12.14571603	     -2.81530011	     40.91936909	     45.73882837	      0.00000000	      0.00000000
     51.26857143	     -5.08317685	     -3.35792676	      1.18645903	      0.82319199	      0.92662878	      0.43228979	     21.98877883	     -6.78573211	     -5.43745411	     63.72247407	     63.72247407	      0.36969094	    -15.92134514	     -1.39303430	     19.74729141	     -2.68753863	     -4.13024396	     24.61135626	     24.61135626	     12.80405221	    -10.11776410	      2.87620837	     -8.73835026	      5.35808157	      2.80319239	     17.44108954	    -13.12912309	    -10.39808682	     45.91622742	     46.28203069	      0.00000000	      0.00000000	      9.83526257	    -12.52668790	     -3.08972267	     41.88629280	     45.80565110	      0.00000000	      0.00000000
     51.28214286	     -4.97500576	     -3.38962635	      0.99903108	      0.82194713	      0.92734543	      0.43139184	     23.55508774	     -6.71249350	     -5.21551288	     65.03417490	     65.03417490	      0.41068291	    -16.35725269	     -0.35779338	     18.99833423	     -2.72736304	     -4.39750001	     24.23913647	     24.23913647	     13.05009377	     -9.82784048	      2.62047756	     -9.00678363	      5.44487287	      3.02027721	     15.70880570	    -13.31229231	    -10.15600591	     42.76562523	     46.36431075	      0.00000000	      0.00000000	     11.68252610	    -12.84874241	     -3.28644271	     42.53149401	     45.86619145	      0.00000000	      0.00000000
